<?xml version="1.0" encoding="UTF-8"?>
<svg xmlns="http://www.w3.org/2000/svg" xmlns:xlink="http://www.w3.org/1999/xlink" version="1.1" id="Capa_1" x="0px" y="0px" viewBox="0 0 512.026 512.026" style="enable-background:new 0 0 512.026 512.026;" xml:space="preserve" width="512" height="512">
<g>
	<path style="fill:none;stroke:#00b4d4;stroke-width:30;stroke-linecap:round;stroke-linejoin:round;stroke-miterlimit:10;" d="&#10;&#9;&#9;M27.063,168.088l152.875-88.286c11.568-6.652,26.269-2.699,32.936,8.812l128.373,222.427c6.667,11.52,2.731,26.245-8.756,32.897&#10;&#9;&#9;l-152.955,88.286c-11.487,6.652-26.189,2.699-32.856-8.813L18.226,200.984C11.558,189.465,15.575,174.74,27.063,168.088z"/>
	<path style="fill:none;stroke:#00b4d4;stroke-width:30;stroke-linecap:round;stroke-linejoin:round;stroke-miterlimit:10;" d="&#10;&#9;&#9;M256.013,163.348l43.139-74.734c6.667-11.512,21.369-15.464,32.936-8.812l152.875,88.286c11.488,6.652,15.505,21.377,8.836,32.896&#10;&#9;&#9;L365.346,423.411c-6.667,11.512-21.369,15.464-32.856,8.813l-76.477-44.143l76.477-44.143c11.487-6.652,15.423-21.377,8.756-32.897&#10;&#9;&#9;L256.013,163.348z"/>
</g>















</svg>
