<?xml version="1.0" encoding="iso-8859-1"?>
<!-- Generator: Adobe Illustrator 19.0.0, SVG Export Plug-In . SVG Version: 6.00 Build 0)  -->
<svg version="1.1" id="Layer_1" xmlns="http://www.w3.org/2000/svg" xmlns:xlink="http://www.w3.org/1999/xlink" x="0px" y="0px"
	 viewBox="0 0 330 330" style="enable-background:new 0 0 330 330;" xml:space="preserve">
<g id="XMLID_439_" fill="#644595">
	<path id="XMLID_440_" d="M95,255c5.27,0,10.42-2.14,14.14-5.86c3.73-3.72,5.86-8.88,5.86-14.14c0-5.26-2.13-10.42-5.86-14.14
		c-3.72-3.72-8.87-5.86-14.14-5.86s-10.42,2.14-14.14,5.86C77.14,224.58,75,229.73,75,235s2.14,10.42,5.86,14.14
		C84.58,252.86,89.73,255,95,255z"/>
	<path id="XMLID_441_" d="M165,185c5.26,0,10.42-2.13,14.14-5.86c3.72-3.72,5.86-8.87,5.86-14.14c0-5.26-2.141-10.42-5.86-14.14
		c-3.72-3.73-8.88-5.86-14.14-5.86c-5.26,0-10.42,2.13-14.14,5.86c-3.72,3.72-5.86,8.87-5.86,14.14s2.14,10.42,5.86,14.14
		C154.58,182.87,159.74,185,165,185z"/>
	<path id="XMLID_443_" d="M235,115c5.26,0,10.42-2.13,14.14-5.86c3.72-3.72,5.86-8.87,5.86-14.14s-2.141-10.42-5.86-14.14
		C245.42,77.13,240.26,75,235,75s-10.42,2.13-14.141,5.86C217.14,84.58,215,89.73,215,95s2.14,10.42,5.859,14.14
		C224.58,112.87,229.73,115,235,115z"/>
	<path id="XMLID_444_" d="M315,0.001H15c-8.284,0-15,6.716-15,15V315c0,8.284,6.716,15,15,15h300c8.284,0,15-6.716,15-15V15
		C330,6.716,323.284,0.001,315,0.001z M300,300H30V30h270V300z"/>
</g>
<g>
</g>
<g>
</g>
<g>
</g>
<g>
</g>
<g>
</g>
<g>
</g>
<g>
</g>
<g>
</g>
<g>
</g>
<g>
</g>
<g>
</g>
<g>
</g>
<g>
</g>
<g>
</g>
<g>
</g>
</svg>
